# xmcd
#
# Track frame offsets:
#	150
#	23882
#	54667
#	83190
#	106270
#	131385
#	163460
#	198420
#	234625
#	267452
#
# Disc length: 3811
#
# Revision: 2
# Processed by: cddbd v1.5.1PL0 Copyright (c) Steve Scherf et al.
# Submitted via: CDex 1.40Release
# Normalized: r1:TRMNUM
#
DISCID=8a0ee10a
DTITLE=Lee Sankey - My Day Is Just Beginning
DYEAR=1997
DGENRE=Blues
TTITLE0=Drinking Game
TTITLE1=Only My Baby
TTITLE2=Women And Trouble
TTITLE3=Shout It On Out
TTITLE4=Office Politics
TTITLE5=Stone In My Shoe
TTITLE6=S'picious Woman
TTITLE7=My Day Is Just Beginning
TTITLE8=I Don't Like My Way Of Living
TTITLE9=Where We Going To
EXTD=YEAR: 1997 ID3G: 0
EXTT0=
EXTT1=
EXTT2=
EXTT3=
EXTT4=
EXTT5=
EXTT6=
EXTT7=
EXTT8=
EXTT9=
PLAYORDER=
